<mxfile host="app.diagrams.net" agent="Mozilla/5.0 (Windows NT 10.0; Win64; x64) AppleWebKit/537.36 (KHTML, like Gecko) Chrome/138.0.0.0 Safari/537.36" version="28.0.4">
  <diagram name="Page-1" id="3-nL8nf_fQpSpYGJ1Xfw">
    <mxGraphModel dx="1158" dy="623" grid="1" gridSize="10" guides="1" tooltips="1" connect="1" arrows="1" fold="1" page="1" pageScale="1" pageWidth="980" pageHeight="1390" math="0" shadow="0">
      <root>
        <mxCell id="0" />
        <mxCell id="1" parent="0" />
        <mxCell id="TYAmSIoRfzc6kdNb8GAb-39" style="edgeStyle=orthogonalEdgeStyle;rounded=0;orthogonalLoop=1;jettySize=auto;html=1;endArrow=none;endFill=0;" edge="1" parent="1" source="TYAmSIoRfzc6kdNb8GAb-1" target="TYAmSIoRfzc6kdNb8GAb-15">
          <mxGeometry relative="1" as="geometry" />
        </mxCell>
        <mxCell id="TYAmSIoRfzc6kdNb8GAb-82" style="edgeStyle=orthogonalEdgeStyle;rounded=0;orthogonalLoop=1;jettySize=auto;html=1;entryX=1;entryY=0;entryDx=0;entryDy=0;endArrow=none;endFill=0;" edge="1" parent="1" source="TYAmSIoRfzc6kdNb8GAb-1" target="TYAmSIoRfzc6kdNb8GAb-70">
          <mxGeometry relative="1" as="geometry">
            <Array as="points">
              <mxPoint x="460" y="420" />
              <mxPoint x="438" y="420" />
            </Array>
          </mxGeometry>
        </mxCell>
        <mxCell id="TYAmSIoRfzc6kdNb8GAb-86" style="edgeStyle=orthogonalEdgeStyle;rounded=0;orthogonalLoop=1;jettySize=auto;html=1;endArrow=none;endFill=0;" edge="1" parent="1" source="TYAmSIoRfzc6kdNb8GAb-1" target="TYAmSIoRfzc6kdNb8GAb-4">
          <mxGeometry relative="1" as="geometry" />
        </mxCell>
        <mxCell id="TYAmSIoRfzc6kdNb8GAb-1" value="Paciente" style="whiteSpace=wrap;html=1;align=center;" vertex="1" parent="1">
          <mxGeometry x="420" y="310" width="100" height="40" as="geometry" />
        </mxCell>
        <mxCell id="TYAmSIoRfzc6kdNb8GAb-2" value="PlanoNutri" style="whiteSpace=wrap;html=1;align=center;" vertex="1" parent="1">
          <mxGeometry x="660" y="90" width="100" height="40" as="geometry" />
        </mxCell>
        <mxCell id="TYAmSIoRfzc6kdNb8GAb-87" style="edgeStyle=orthogonalEdgeStyle;rounded=0;orthogonalLoop=1;jettySize=auto;html=1;endArrow=none;endFill=0;" edge="1" parent="1" source="TYAmSIoRfzc6kdNb8GAb-4" target="TYAmSIoRfzc6kdNb8GAb-2">
          <mxGeometry relative="1" as="geometry" />
        </mxCell>
        <mxCell id="TYAmSIoRfzc6kdNb8GAb-113" value="" style="edgeStyle=orthogonalEdgeStyle;rounded=0;orthogonalLoop=1;jettySize=auto;html=1;endArrow=none;endFill=0;" edge="1" parent="1" source="TYAmSIoRfzc6kdNb8GAb-4" target="TYAmSIoRfzc6kdNb8GAb-108">
          <mxGeometry relative="1" as="geometry">
            <Array as="points">
              <mxPoint x="800" y="250" />
              <mxPoint x="800" y="265" />
            </Array>
          </mxGeometry>
        </mxCell>
        <mxCell id="TYAmSIoRfzc6kdNb8GAb-4" value="InscricaoPlano" style="shape=associativeEntity;whiteSpace=wrap;html=1;align=center;" vertex="1" parent="1">
          <mxGeometry x="640" y="220" width="140" height="60" as="geometry" />
        </mxCell>
        <mxCell id="TYAmSIoRfzc6kdNb8GAb-5" value="Nutricionista" style="whiteSpace=wrap;html=1;align=center;" vertex="1" parent="1">
          <mxGeometry x="420" y="70" width="100" height="40" as="geometry" />
        </mxCell>
        <mxCell id="TYAmSIoRfzc6kdNb8GAb-120" style="edgeStyle=orthogonalEdgeStyle;rounded=0;orthogonalLoop=1;jettySize=auto;html=1;endArrow=none;endFill=0;" edge="1" parent="1" source="TYAmSIoRfzc6kdNb8GAb-6" target="TYAmSIoRfzc6kdNb8GAb-1">
          <mxGeometry relative="1" as="geometry" />
        </mxCell>
        <mxCell id="TYAmSIoRfzc6kdNb8GAb-121" style="edgeStyle=orthogonalEdgeStyle;rounded=0;orthogonalLoop=1;jettySize=auto;html=1;endArrow=none;endFill=0;" edge="1" parent="1" source="TYAmSIoRfzc6kdNb8GAb-6" target="TYAmSIoRfzc6kdNb8GAb-5">
          <mxGeometry relative="1" as="geometry" />
        </mxCell>
        <mxCell id="TYAmSIoRfzc6kdNb8GAb-6" value="Consulta" style="shape=associativeEntity;whiteSpace=wrap;html=1;align=center;" vertex="1" parent="1">
          <mxGeometry x="400" y="170" width="140" height="60" as="geometry" />
        </mxCell>
        <mxCell id="TYAmSIoRfzc6kdNb8GAb-8" value="Refeicao" style="whiteSpace=wrap;html=1;align=center;" vertex="1" parent="1">
          <mxGeometry x="579" y="506" width="100" height="40" as="geometry" />
        </mxCell>
        <mxCell id="TYAmSIoRfzc6kdNb8GAb-43" style="edgeStyle=orthogonalEdgeStyle;rounded=0;orthogonalLoop=1;jettySize=auto;html=1;endArrow=none;endFill=0;" edge="1" parent="1" source="TYAmSIoRfzc6kdNb8GAb-9" target="TYAmSIoRfzc6kdNb8GAb-1">
          <mxGeometry relative="1" as="geometry">
            <Array as="points">
              <mxPoint x="470" y="420" />
              <mxPoint x="470" y="420" />
            </Array>
          </mxGeometry>
        </mxCell>
        <mxCell id="TYAmSIoRfzc6kdNb8GAb-50" style="edgeStyle=orthogonalEdgeStyle;rounded=0;orthogonalLoop=1;jettySize=auto;html=1;endArrow=none;endFill=0;" edge="1" parent="1" source="TYAmSIoRfzc6kdNb8GAb-9" target="TYAmSIoRfzc6kdNb8GAb-8">
          <mxGeometry relative="1" as="geometry" />
        </mxCell>
        <mxCell id="TYAmSIoRfzc6kdNb8GAb-9" value="faz" style="shape=rhombus;perimeter=rhombusPerimeter;whiteSpace=wrap;html=1;align=center;" vertex="1" parent="1">
          <mxGeometry x="410" y="496" width="120" height="60" as="geometry" />
        </mxCell>
        <mxCell id="TYAmSIoRfzc6kdNb8GAb-10" value="ItemRefeicao" style="whiteSpace=wrap;html=1;align=center;" vertex="1" parent="1">
          <mxGeometry x="739" y="423.5" width="100" height="40" as="geometry" />
        </mxCell>
        <mxCell id="TYAmSIoRfzc6kdNb8GAb-152" style="edgeStyle=orthogonalEdgeStyle;rounded=0;orthogonalLoop=1;jettySize=auto;html=1;endArrow=none;endFill=0;" edge="1" parent="1" source="TYAmSIoRfzc6kdNb8GAb-11" target="TYAmSIoRfzc6kdNb8GAb-8">
          <mxGeometry relative="1" as="geometry" />
        </mxCell>
        <mxCell id="TYAmSIoRfzc6kdNb8GAb-153" style="edgeStyle=orthogonalEdgeStyle;rounded=0;orthogonalLoop=1;jettySize=auto;html=1;endArrow=none;endFill=0;" edge="1" parent="1" source="TYAmSIoRfzc6kdNb8GAb-11" target="TYAmSIoRfzc6kdNb8GAb-10">
          <mxGeometry relative="1" as="geometry" />
        </mxCell>
        <mxCell id="TYAmSIoRfzc6kdNb8GAb-11" value="tem" style="shape=rhombus;perimeter=rhombusPerimeter;whiteSpace=wrap;html=1;align=center;" vertex="1" parent="1">
          <mxGeometry x="729" y="496" width="120" height="60" as="geometry" />
        </mxCell>
        <mxCell id="TYAmSIoRfzc6kdNb8GAb-12" value="(1,n)" style="text;strokeColor=none;fillColor=none;spacingLeft=4;spacingRight=4;overflow=hidden;rotatable=0;points=[[0,0.5],[1,0.5]];portConstraint=eastwest;fontSize=12;whiteSpace=wrap;html=1;" vertex="1" parent="1">
          <mxGeometry x="784.5" y="455.5" width="40" height="30" as="geometry" />
        </mxCell>
        <mxCell id="TYAmSIoRfzc6kdNb8GAb-13" value="(0,1)" style="text;strokeColor=none;fillColor=none;spacingLeft=4;spacingRight=4;overflow=hidden;rotatable=0;points=[[0,0.5],[1,0.5]];portConstraint=eastwest;fontSize=12;whiteSpace=wrap;html=1;" vertex="1" parent="1">
          <mxGeometry x="677" y="499" width="40" height="30" as="geometry" />
        </mxCell>
        <mxCell id="TYAmSIoRfzc6kdNb8GAb-14" value="Peso" style="whiteSpace=wrap;html=1;align=center;" vertex="1" parent="1">
          <mxGeometry x="170" y="230" width="100" height="40" as="geometry" />
        </mxCell>
        <mxCell id="TYAmSIoRfzc6kdNb8GAb-41" style="edgeStyle=orthogonalEdgeStyle;rounded=0;orthogonalLoop=1;jettySize=auto;html=1;endArrow=none;endFill=0;" edge="1" parent="1" source="TYAmSIoRfzc6kdNb8GAb-15" target="TYAmSIoRfzc6kdNb8GAb-14">
          <mxGeometry relative="1" as="geometry">
            <mxPoint x="280.0000000000001" y="340.0000000000001" as="sourcePoint" />
            <mxPoint x="190" y="310" as="targetPoint" />
            <Array as="points">
              <mxPoint x="220" y="330" />
            </Array>
          </mxGeometry>
        </mxCell>
        <mxCell id="TYAmSIoRfzc6kdNb8GAb-15" value="mede" style="shape=rhombus;perimeter=rhombusPerimeter;whiteSpace=wrap;html=1;align=center;" vertex="1" parent="1">
          <mxGeometry x="250" y="300" width="120" height="60" as="geometry" />
        </mxCell>
        <mxCell id="TYAmSIoRfzc6kdNb8GAb-16" value="(0,n)" style="text;strokeColor=none;fillColor=none;spacingLeft=4;spacingRight=4;overflow=hidden;rotatable=0;points=[[0,0.5],[1,0.5]];portConstraint=eastwest;fontSize=12;whiteSpace=wrap;html=1;" vertex="1" parent="1">
          <mxGeometry x="220" y="264" width="40" height="30" as="geometry" />
        </mxCell>
        <mxCell id="TYAmSIoRfzc6kdNb8GAb-17" value="(1,1)" style="text;strokeColor=none;fillColor=none;spacingLeft=4;spacingRight=4;overflow=hidden;rotatable=0;points=[[0,0.5],[1,0.5]];portConstraint=eastwest;fontSize=12;whiteSpace=wrap;html=1;" vertex="1" parent="1">
          <mxGeometry x="386" y="304" width="40" height="30" as="geometry" />
        </mxCell>
        <mxCell id="TYAmSIoRfzc6kdNb8GAb-18" value="(0,n)" style="text;strokeColor=none;fillColor=none;spacingLeft=4;spacingRight=4;overflow=hidden;rotatable=0;points=[[0,0.5],[1,0.5]];portConstraint=eastwest;fontSize=12;whiteSpace=wrap;html=1;" vertex="1" parent="1">
          <mxGeometry x="469" y="287" width="40" height="30" as="geometry" />
        </mxCell>
        <mxCell id="TYAmSIoRfzc6kdNb8GAb-19" value="(1,n)" style="text;strokeColor=none;fillColor=none;spacingLeft=4;spacingRight=4;overflow=hidden;rotatable=0;points=[[0,0.5],[1,0.5]];portConstraint=eastwest;fontSize=12;whiteSpace=wrap;html=1;" vertex="1" parent="1">
          <mxGeometry x="469" y="110" width="40" height="30" as="geometry" />
        </mxCell>
        <mxCell id="TYAmSIoRfzc6kdNb8GAb-20" value="(1,1)" style="text;strokeColor=none;fillColor=none;spacingLeft=4;spacingRight=4;overflow=hidden;rotatable=0;points=[[0,0.5],[1,0.5]];portConstraint=eastwest;fontSize=12;whiteSpace=wrap;html=1;" vertex="1" parent="1">
          <mxGeometry x="469" y="348" width="40" height="30" as="geometry" />
        </mxCell>
        <mxCell id="TYAmSIoRfzc6kdNb8GAb-21" value="(1,n)" style="text;strokeColor=none;fillColor=none;spacingLeft=4;spacingRight=4;overflow=hidden;rotatable=0;points=[[0,0.5],[1,0.5]];portConstraint=eastwest;fontSize=12;whiteSpace=wrap;html=1;" vertex="1" parent="1">
          <mxGeometry x="547" y="500" width="40" height="30" as="geometry" />
        </mxCell>
        <mxCell id="TYAmSIoRfzc6kdNb8GAb-22" value="Produto" style="whiteSpace=wrap;html=1;align=center;" vertex="1" parent="1">
          <mxGeometry x="170" y="411" width="100" height="40" as="geometry" />
        </mxCell>
        <mxCell id="TYAmSIoRfzc6kdNb8GAb-23" value="MovimentacaoEstoque" style="whiteSpace=wrap;html=1;align=center;" vertex="1" parent="1">
          <mxGeometry x="150" y="560" width="140" height="40" as="geometry" />
        </mxCell>
        <mxCell id="TYAmSIoRfzc6kdNb8GAb-217" style="edgeStyle=orthogonalEdgeStyle;rounded=0;orthogonalLoop=1;jettySize=auto;html=1;endArrow=none;endFill=0;" edge="1" parent="1" source="TYAmSIoRfzc6kdNb8GAb-24" target="TYAmSIoRfzc6kdNb8GAb-22">
          <mxGeometry relative="1" as="geometry" />
        </mxCell>
        <mxCell id="TYAmSIoRfzc6kdNb8GAb-218" style="edgeStyle=orthogonalEdgeStyle;rounded=0;orthogonalLoop=1;jettySize=auto;html=1;endArrow=none;endFill=0;" edge="1" parent="1" source="TYAmSIoRfzc6kdNb8GAb-24" target="TYAmSIoRfzc6kdNb8GAb-23">
          <mxGeometry relative="1" as="geometry" />
        </mxCell>
        <mxCell id="TYAmSIoRfzc6kdNb8GAb-24" value="registrado-em" style="shape=rhombus;perimeter=rhombusPerimeter;whiteSpace=wrap;html=1;align=center;" vertex="1" parent="1">
          <mxGeometry x="165" y="480" width="110" height="50" as="geometry" />
        </mxCell>
        <mxCell id="TYAmSIoRfzc6kdNb8GAb-51" value="data_nascimento" style="text;strokeColor=none;fillColor=none;spacingLeft=4;spacingRight=4;overflow=hidden;rotatable=0;points=[[0,0.5],[1,0.5]];portConstraint=eastwest;fontSize=12;whiteSpace=wrap;html=1;" vertex="1" parent="1">
          <mxGeometry x="511.5" y="400" width="101" height="30" as="geometry" />
        </mxCell>
        <mxCell id="TYAmSIoRfzc6kdNb8GAb-78" style="edgeStyle=orthogonalEdgeStyle;rounded=0;orthogonalLoop=1;jettySize=auto;html=1;endArrow=none;endFill=0;" edge="1" parent="1" source="TYAmSIoRfzc6kdNb8GAb-53" target="TYAmSIoRfzc6kdNb8GAb-1">
          <mxGeometry relative="1" as="geometry">
            <Array as="points">
              <mxPoint x="505" y="370" />
              <mxPoint x="505" y="370" />
            </Array>
          </mxGeometry>
        </mxCell>
        <mxCell id="TYAmSIoRfzc6kdNb8GAb-53" value="" style="ellipse;whiteSpace=wrap;html=1;aspect=fixed;" vertex="1" parent="1">
          <mxGeometry x="500" y="410.5" width="9" height="9" as="geometry" />
        </mxCell>
        <mxCell id="TYAmSIoRfzc6kdNb8GAb-58" value="data_cadastro" style="text;html=1;align=center;verticalAlign=middle;whiteSpace=wrap;rounded=0;" vertex="1" parent="1">
          <mxGeometry x="550" y="370" width="60" height="30" as="geometry" />
        </mxCell>
        <mxCell id="TYAmSIoRfzc6kdNb8GAb-75" style="edgeStyle=orthogonalEdgeStyle;rounded=0;orthogonalLoop=1;jettySize=auto;html=1;endArrow=none;endFill=0;" edge="1" parent="1" source="TYAmSIoRfzc6kdNb8GAb-59" target="TYAmSIoRfzc6kdNb8GAb-1">
          <mxGeometry relative="1" as="geometry">
            <Array as="points">
              <mxPoint x="540" y="355" />
              <mxPoint x="540" y="350" />
            </Array>
          </mxGeometry>
        </mxCell>
        <mxCell id="TYAmSIoRfzc6kdNb8GAb-59" value="nome" style="text;html=1;align=center;verticalAlign=middle;whiteSpace=wrap;rounded=0;" vertex="1" parent="1">
          <mxGeometry x="560" y="340" width="60" height="30" as="geometry" />
        </mxCell>
        <mxCell id="TYAmSIoRfzc6kdNb8GAb-61" value="&lt;u&gt;cpf&lt;/u&gt;" style="text;html=1;align=center;verticalAlign=middle;whiteSpace=wrap;rounded=0;" vertex="1" parent="1">
          <mxGeometry x="547" y="280.5" width="60" height="30" as="geometry" />
        </mxCell>
        <mxCell id="TYAmSIoRfzc6kdNb8GAb-62" value="id_paciente" style="text;html=1;align=center;verticalAlign=middle;whiteSpace=wrap;rounded=0;" vertex="1" parent="1">
          <mxGeometry x="519" y="264" width="60" height="36" as="geometry" />
        </mxCell>
        <mxCell id="TYAmSIoRfzc6kdNb8GAb-63" value="altura" style="text;html=1;align=center;verticalAlign=middle;whiteSpace=wrap;rounded=0;" vertex="1" parent="1">
          <mxGeometry x="390" y="419.5" width="60" height="30" as="geometry" />
        </mxCell>
        <mxCell id="TYAmSIoRfzc6kdNb8GAb-64" value="peso_inicial" style="text;html=1;align=center;verticalAlign=middle;whiteSpace=wrap;rounded=0;" vertex="1" parent="1">
          <mxGeometry x="350" y="400" width="60" height="30" as="geometry" />
        </mxCell>
        <mxCell id="TYAmSIoRfzc6kdNb8GAb-65" value="email" style="text;html=1;align=center;verticalAlign=middle;whiteSpace=wrap;rounded=0;" vertex="1" parent="1">
          <mxGeometry x="330" y="360" width="60" height="30" as="geometry" />
        </mxCell>
        <mxCell id="TYAmSIoRfzc6kdNb8GAb-66" value="telefone" style="text;html=1;align=center;verticalAlign=middle;whiteSpace=wrap;rounded=0;" vertex="1" parent="1">
          <mxGeometry x="340" y="381" width="60" height="30" as="geometry" />
        </mxCell>
        <mxCell id="TYAmSIoRfzc6kdNb8GAb-76" style="edgeStyle=orthogonalEdgeStyle;rounded=0;orthogonalLoop=1;jettySize=auto;html=1;endArrow=none;endFill=0;" edge="1" parent="1" source="TYAmSIoRfzc6kdNb8GAb-67" target="TYAmSIoRfzc6kdNb8GAb-1">
          <mxGeometry relative="1" as="geometry">
            <Array as="points">
              <mxPoint x="510" y="385" />
            </Array>
          </mxGeometry>
        </mxCell>
        <mxCell id="TYAmSIoRfzc6kdNb8GAb-67" value="" style="ellipse;whiteSpace=wrap;html=1;aspect=fixed;" vertex="1" parent="1">
          <mxGeometry x="530" y="380.5" width="9" height="9" as="geometry" />
        </mxCell>
        <mxCell id="TYAmSIoRfzc6kdNb8GAb-68" value="" style="ellipse;whiteSpace=wrap;html=1;aspect=fixed;" vertex="1" parent="1">
          <mxGeometry x="560" y="351" width="9" height="9" as="geometry" />
        </mxCell>
        <mxCell id="TYAmSIoRfzc6kdNb8GAb-80" style="edgeStyle=orthogonalEdgeStyle;rounded=0;orthogonalLoop=1;jettySize=auto;html=1;endArrow=none;endFill=0;" edge="1" parent="1" source="TYAmSIoRfzc6kdNb8GAb-69" target="TYAmSIoRfzc6kdNb8GAb-1">
          <mxGeometry relative="1" as="geometry">
            <Array as="points">
              <mxPoint x="562" y="310" />
            </Array>
          </mxGeometry>
        </mxCell>
        <mxCell id="TYAmSIoRfzc6kdNb8GAb-69" value="" style="ellipse;whiteSpace=wrap;html=1;aspect=fixed;" vertex="1" parent="1">
          <mxGeometry x="557.5" y="297.5" width="9" height="9" as="geometry" />
        </mxCell>
        <mxCell id="TYAmSIoRfzc6kdNb8GAb-70" value="" style="ellipse;whiteSpace=wrap;html=1;aspect=fixed;" vertex="1" parent="1">
          <mxGeometry x="430" y="419.5" width="9" height="9" as="geometry" />
        </mxCell>
        <mxCell id="TYAmSIoRfzc6kdNb8GAb-83" value="" style="edgeStyle=orthogonalEdgeStyle;rounded=0;orthogonalLoop=1;jettySize=auto;html=1;endArrow=none;endFill=0;" edge="1" parent="1" source="TYAmSIoRfzc6kdNb8GAb-71" target="TYAmSIoRfzc6kdNb8GAb-1">
          <mxGeometry relative="1" as="geometry">
            <Array as="points">
              <mxPoint x="450" y="405" />
            </Array>
          </mxGeometry>
        </mxCell>
        <mxCell id="TYAmSIoRfzc6kdNb8GAb-71" value="" style="ellipse;whiteSpace=wrap;html=1;aspect=fixed;" vertex="1" parent="1">
          <mxGeometry x="410" y="400" width="9" height="9" as="geometry" />
        </mxCell>
        <mxCell id="TYAmSIoRfzc6kdNb8GAb-84" style="edgeStyle=orthogonalEdgeStyle;rounded=0;orthogonalLoop=1;jettySize=auto;html=1;endArrow=none;endFill=0;" edge="1" parent="1" source="TYAmSIoRfzc6kdNb8GAb-72" target="TYAmSIoRfzc6kdNb8GAb-1">
          <mxGeometry relative="1" as="geometry">
            <Array as="points">
              <mxPoint x="440" y="386" />
            </Array>
          </mxGeometry>
        </mxCell>
        <mxCell id="TYAmSIoRfzc6kdNb8GAb-72" value="" style="ellipse;whiteSpace=wrap;html=1;aspect=fixed;" vertex="1" parent="1">
          <mxGeometry x="391" y="381" width="9" height="9" as="geometry" />
        </mxCell>
        <mxCell id="TYAmSIoRfzc6kdNb8GAb-85" style="edgeStyle=orthogonalEdgeStyle;rounded=0;orthogonalLoop=1;jettySize=auto;html=1;endArrow=none;endFill=0;" edge="1" parent="1" source="TYAmSIoRfzc6kdNb8GAb-73" target="TYAmSIoRfzc6kdNb8GAb-1">
          <mxGeometry relative="1" as="geometry">
            <Array as="points">
              <mxPoint x="430" y="370" />
            </Array>
          </mxGeometry>
        </mxCell>
        <mxCell id="TYAmSIoRfzc6kdNb8GAb-73" value="" style="ellipse;whiteSpace=wrap;html=1;aspect=fixed;" vertex="1" parent="1">
          <mxGeometry x="375.5" y="366" width="9" height="9" as="geometry" />
        </mxCell>
        <mxCell id="TYAmSIoRfzc6kdNb8GAb-81" style="edgeStyle=orthogonalEdgeStyle;rounded=0;orthogonalLoop=1;jettySize=auto;html=1;endArrow=none;endFill=0;" edge="1" parent="1" source="TYAmSIoRfzc6kdNb8GAb-74" target="TYAmSIoRfzc6kdNb8GAb-1">
          <mxGeometry relative="1" as="geometry">
            <Array as="points">
              <mxPoint x="510" y="296" />
            </Array>
          </mxGeometry>
        </mxCell>
        <mxCell id="TYAmSIoRfzc6kdNb8GAb-74" value="" style="ellipse;whiteSpace=wrap;html=1;aspect=fixed;fillColor=#000000;" vertex="1" parent="1">
          <mxGeometry x="520" y="291" width="9" height="9" as="geometry" />
        </mxCell>
        <mxCell id="TYAmSIoRfzc6kdNb8GAb-88" value="id_plano" style="text;html=1;align=center;verticalAlign=middle;whiteSpace=wrap;rounded=0;" vertex="1" parent="1">
          <mxGeometry x="650" y="30" width="60" height="30" as="geometry" />
        </mxCell>
        <mxCell id="TYAmSIoRfzc6kdNb8GAb-89" value="nome" style="text;html=1;align=center;verticalAlign=middle;whiteSpace=wrap;rounded=0;" vertex="1" parent="1">
          <mxGeometry x="710" y="30" width="60" height="30" as="geometry" />
        </mxCell>
        <mxCell id="TYAmSIoRfzc6kdNb8GAb-90" value="duracao" style="text;html=1;align=center;verticalAlign=middle;whiteSpace=wrap;rounded=0;" vertex="1" parent="1">
          <mxGeometry x="770" y="60" width="60" height="30" as="geometry" />
        </mxCell>
        <mxCell id="TYAmSIoRfzc6kdNb8GAb-91" value="valor_total" style="text;html=1;align=center;verticalAlign=middle;whiteSpace=wrap;rounded=0;" vertex="1" parent="1">
          <mxGeometry x="582" y="60" width="60" height="30" as="geometry" />
        </mxCell>
        <mxCell id="TYAmSIoRfzc6kdNb8GAb-97" style="edgeStyle=orthogonalEdgeStyle;rounded=0;orthogonalLoop=1;jettySize=auto;html=1;endArrow=none;endFill=0;" edge="1" parent="1" source="TYAmSIoRfzc6kdNb8GAb-93" target="TYAmSIoRfzc6kdNb8GAb-2">
          <mxGeometry relative="1" as="geometry">
            <Array as="points">
              <mxPoint x="740" y="80" />
              <mxPoint x="740" y="80" />
            </Array>
          </mxGeometry>
        </mxCell>
        <mxCell id="TYAmSIoRfzc6kdNb8GAb-93" value="" style="ellipse;whiteSpace=wrap;html=1;aspect=fixed;" vertex="1" parent="1">
          <mxGeometry x="735.5" y="60" width="9" height="9" as="geometry" />
        </mxCell>
        <mxCell id="TYAmSIoRfzc6kdNb8GAb-98" style="edgeStyle=orthogonalEdgeStyle;rounded=0;orthogonalLoop=1;jettySize=auto;html=1;endArrow=none;endFill=0;" edge="1" parent="1" source="TYAmSIoRfzc6kdNb8GAb-94" target="TYAmSIoRfzc6kdNb8GAb-2">
          <mxGeometry relative="1" as="geometry" />
        </mxCell>
        <mxCell id="TYAmSIoRfzc6kdNb8GAb-94" value="" style="ellipse;whiteSpace=wrap;html=1;aspect=fixed;" vertex="1" parent="1">
          <mxGeometry x="790" y="85.5" width="9" height="9" as="geometry" />
        </mxCell>
        <mxCell id="TYAmSIoRfzc6kdNb8GAb-100" style="edgeStyle=orthogonalEdgeStyle;rounded=0;orthogonalLoop=1;jettySize=auto;html=1;endArrow=none;endFill=0;" edge="1" parent="1" source="TYAmSIoRfzc6kdNb8GAb-95" target="TYAmSIoRfzc6kdNb8GAb-2">
          <mxGeometry relative="1" as="geometry" />
        </mxCell>
        <mxCell id="TYAmSIoRfzc6kdNb8GAb-95" value="" style="ellipse;whiteSpace=wrap;html=1;aspect=fixed;" vertex="1" parent="1">
          <mxGeometry x="620" y="85.5" width="9" height="9" as="geometry" />
        </mxCell>
        <mxCell id="TYAmSIoRfzc6kdNb8GAb-99" style="edgeStyle=orthogonalEdgeStyle;rounded=0;orthogonalLoop=1;jettySize=auto;html=1;endArrow=none;endFill=0;" edge="1" parent="1" source="TYAmSIoRfzc6kdNb8GAb-96" target="TYAmSIoRfzc6kdNb8GAb-2">
          <mxGeometry relative="1" as="geometry">
            <Array as="points">
              <mxPoint x="680" y="80" />
              <mxPoint x="680" y="80" />
            </Array>
          </mxGeometry>
        </mxCell>
        <mxCell id="TYAmSIoRfzc6kdNb8GAb-96" value="" style="ellipse;whiteSpace=wrap;html=1;aspect=fixed;fillColor=#000000;" vertex="1" parent="1">
          <mxGeometry x="675.5" y="60" width="9" height="9" as="geometry" />
        </mxCell>
        <mxCell id="TYAmSIoRfzc6kdNb8GAb-101" value="id_inscricao" style="text;html=1;align=center;verticalAlign=middle;whiteSpace=wrap;rounded=0;" vertex="1" parent="1">
          <mxGeometry x="750" y="160" width="60" height="30" as="geometry" />
        </mxCell>
        <mxCell id="TYAmSIoRfzc6kdNb8GAb-102" value="id_paciente" style="text;html=1;align=center;verticalAlign=middle;whiteSpace=wrap;rounded=0;" vertex="1" parent="1">
          <mxGeometry x="810" y="190" width="60" height="30" as="geometry" />
        </mxCell>
        <mxCell id="TYAmSIoRfzc6kdNb8GAb-103" value="id_plano" style="text;html=1;align=center;verticalAlign=middle;whiteSpace=wrap;rounded=0;" vertex="1" parent="1">
          <mxGeometry x="820" y="230" width="60" height="30" as="geometry" />
        </mxCell>
        <mxCell id="TYAmSIoRfzc6kdNb8GAb-104" value="data_inicio" style="text;html=1;align=center;verticalAlign=middle;whiteSpace=wrap;rounded=0;" vertex="1" parent="1">
          <mxGeometry x="810" y="270" width="60" height="30" as="geometry" />
        </mxCell>
        <mxCell id="TYAmSIoRfzc6kdNb8GAb-105" value="status" style="text;html=1;align=center;verticalAlign=middle;whiteSpace=wrap;rounded=0;" vertex="1" parent="1">
          <mxGeometry x="750" y="300" width="60" height="30" as="geometry" />
        </mxCell>
        <mxCell id="TYAmSIoRfzc6kdNb8GAb-112" style="edgeStyle=orthogonalEdgeStyle;rounded=0;orthogonalLoop=1;jettySize=auto;html=1;endArrow=none;endFill=0;" edge="1" parent="1" source="TYAmSIoRfzc6kdNb8GAb-106" target="TYAmSIoRfzc6kdNb8GAb-4">
          <mxGeometry relative="1" as="geometry">
            <Array as="points">
              <mxPoint x="756" y="219" />
              <mxPoint x="756" y="219" />
            </Array>
          </mxGeometry>
        </mxCell>
        <mxCell id="TYAmSIoRfzc6kdNb8GAb-106" value="" style="ellipse;whiteSpace=wrap;html=1;aspect=fixed;fillColor=#000000;" vertex="1" parent="1">
          <mxGeometry x="751" y="190" width="9" height="9" as="geometry" />
        </mxCell>
        <mxCell id="TYAmSIoRfzc6kdNb8GAb-111" style="edgeStyle=orthogonalEdgeStyle;rounded=0;orthogonalLoop=1;jettySize=auto;html=1;endArrow=none;endFill=0;" edge="1" parent="1" source="TYAmSIoRfzc6kdNb8GAb-107" target="TYAmSIoRfzc6kdNb8GAb-4">
          <mxGeometry relative="1" as="geometry">
            <Array as="points">
              <mxPoint x="810" y="230" />
            </Array>
          </mxGeometry>
        </mxCell>
        <mxCell id="TYAmSIoRfzc6kdNb8GAb-107" value="" style="ellipse;whiteSpace=wrap;html=1;aspect=fixed;" vertex="1" parent="1">
          <mxGeometry x="805.5" y="211" width="9" height="9" as="geometry" />
        </mxCell>
        <mxCell id="TYAmSIoRfzc6kdNb8GAb-108" value="" style="ellipse;whiteSpace=wrap;html=1;aspect=fixed;" vertex="1" parent="1">
          <mxGeometry x="820" y="260" width="9" height="9" as="geometry" />
        </mxCell>
        <mxCell id="TYAmSIoRfzc6kdNb8GAb-109" value="" style="ellipse;whiteSpace=wrap;html=1;aspect=fixed;" vertex="1" parent="1">
          <mxGeometry x="800" y="290" width="9" height="9" as="geometry" />
        </mxCell>
        <mxCell id="TYAmSIoRfzc6kdNb8GAb-115" style="edgeStyle=orthogonalEdgeStyle;rounded=0;orthogonalLoop=1;jettySize=auto;html=1;endArrow=none;endFill=0;" edge="1" parent="1" source="TYAmSIoRfzc6kdNb8GAb-110" target="TYAmSIoRfzc6kdNb8GAb-4">
          <mxGeometry relative="1" as="geometry">
            <Array as="points">
              <mxPoint x="755" y="300" />
              <mxPoint x="755" y="300" />
            </Array>
          </mxGeometry>
        </mxCell>
        <mxCell id="TYAmSIoRfzc6kdNb8GAb-110" value="" style="ellipse;whiteSpace=wrap;html=1;aspect=fixed;" vertex="1" parent="1">
          <mxGeometry x="750" y="320" width="9" height="9" as="geometry" />
        </mxCell>
        <mxCell id="TYAmSIoRfzc6kdNb8GAb-114" style="edgeStyle=orthogonalEdgeStyle;rounded=0;orthogonalLoop=1;jettySize=auto;html=1;endArrow=none;endFill=0;" edge="1" parent="1" source="TYAmSIoRfzc6kdNb8GAb-109" target="TYAmSIoRfzc6kdNb8GAb-4">
          <mxGeometry relative="1" as="geometry">
            <Array as="points">
              <mxPoint x="790" y="295" />
              <mxPoint x="790" y="270" />
            </Array>
          </mxGeometry>
        </mxCell>
        <mxCell id="TYAmSIoRfzc6kdNb8GAb-116" value="(0,n)" style="text;html=1;align=center;verticalAlign=middle;whiteSpace=wrap;rounded=0;" vertex="1" parent="1">
          <mxGeometry x="504.5" y="306.5" width="60" height="30" as="geometry" />
        </mxCell>
        <mxCell id="TYAmSIoRfzc6kdNb8GAb-118" value="(0,n)" style="text;html=1;align=center;verticalAlign=middle;whiteSpace=wrap;rounded=0;" vertex="1" parent="1">
          <mxGeometry x="659" y="130" width="60" height="30" as="geometry" />
        </mxCell>
        <mxCell id="TYAmSIoRfzc6kdNb8GAb-122" value="id_nutri" style="text;html=1;align=center;verticalAlign=middle;whiteSpace=wrap;rounded=0;" vertex="1" parent="1">
          <mxGeometry x="439" y="10" width="60" height="30" as="geometry" />
        </mxCell>
        <mxCell id="TYAmSIoRfzc6kdNb8GAb-129" style="edgeStyle=orthogonalEdgeStyle;rounded=0;orthogonalLoop=1;jettySize=auto;html=1;endArrow=none;endFill=0;" edge="1" parent="1" source="TYAmSIoRfzc6kdNb8GAb-123" target="TYAmSIoRfzc6kdNb8GAb-5">
          <mxGeometry relative="1" as="geometry" />
        </mxCell>
        <mxCell id="TYAmSIoRfzc6kdNb8GAb-123" value="" style="ellipse;whiteSpace=wrap;html=1;aspect=fixed;fillColor=#000000;" vertex="1" parent="1">
          <mxGeometry x="464.5" y="35" width="9" height="9" as="geometry" />
        </mxCell>
        <mxCell id="TYAmSIoRfzc6kdNb8GAb-124" value="nome" style="text;html=1;align=center;verticalAlign=middle;whiteSpace=wrap;rounded=0;" vertex="1" parent="1">
          <mxGeometry x="487" y="19" width="60" height="30" as="geometry" />
        </mxCell>
        <mxCell id="TYAmSIoRfzc6kdNb8GAb-125" value="especializacao" style="text;html=1;align=center;verticalAlign=middle;whiteSpace=wrap;rounded=0;" vertex="1" parent="1">
          <mxGeometry x="365.5" y="19" width="60" height="30" as="geometry" />
        </mxCell>
        <mxCell id="TYAmSIoRfzc6kdNb8GAb-130" style="edgeStyle=orthogonalEdgeStyle;rounded=0;orthogonalLoop=1;jettySize=auto;html=1;endArrow=none;endFill=0;" edge="1" parent="1" source="TYAmSIoRfzc6kdNb8GAb-126" target="TYAmSIoRfzc6kdNb8GAb-5">
          <mxGeometry relative="1" as="geometry">
            <Array as="points">
              <mxPoint x="424" y="69" />
              <mxPoint x="424" y="50" />
            </Array>
          </mxGeometry>
        </mxCell>
        <mxCell id="TYAmSIoRfzc6kdNb8GAb-126" value="" style="ellipse;whiteSpace=wrap;html=1;aspect=fixed;" vertex="1" parent="1">
          <mxGeometry x="419" y="40.5" width="9" height="9" as="geometry" />
        </mxCell>
        <mxCell id="TYAmSIoRfzc6kdNb8GAb-128" style="edgeStyle=orthogonalEdgeStyle;rounded=0;orthogonalLoop=1;jettySize=auto;html=1;endArrow=none;endFill=0;" edge="1" parent="1" source="TYAmSIoRfzc6kdNb8GAb-127" target="TYAmSIoRfzc6kdNb8GAb-5">
          <mxGeometry relative="1" as="geometry">
            <Array as="points">
              <mxPoint x="514" y="69" />
              <mxPoint x="514" y="50" />
            </Array>
          </mxGeometry>
        </mxCell>
        <mxCell id="TYAmSIoRfzc6kdNb8GAb-127" value="" style="ellipse;whiteSpace=wrap;html=1;aspect=fixed;" vertex="1" parent="1">
          <mxGeometry x="509" y="40.5" width="9" height="9" as="geometry" />
        </mxCell>
        <mxCell id="TYAmSIoRfzc6kdNb8GAb-131" value="id_consulta" style="text;html=1;align=center;verticalAlign=middle;whiteSpace=wrap;rounded=0;" vertex="1" parent="1">
          <mxGeometry x="534.5" y="130" width="60" height="30" as="geometry" />
        </mxCell>
        <mxCell id="TYAmSIoRfzc6kdNb8GAb-132" value="id_paciente" style="text;html=1;align=center;verticalAlign=middle;whiteSpace=wrap;rounded=0;" vertex="1" parent="1">
          <mxGeometry x="560" y="170" width="60" height="30" as="geometry" />
        </mxCell>
        <mxCell id="TYAmSIoRfzc6kdNb8GAb-133" value="id_nutri" style="text;html=1;align=center;verticalAlign=middle;whiteSpace=wrap;rounded=0;" vertex="1" parent="1">
          <mxGeometry x="553" y="211" width="60" height="30" as="geometry" />
        </mxCell>
        <mxCell id="TYAmSIoRfzc6kdNb8GAb-134" value="data" style="text;html=1;align=center;verticalAlign=middle;whiteSpace=wrap;rounded=0;" vertex="1" parent="1">
          <mxGeometry x="359" y="120" width="60" height="30" as="geometry" />
        </mxCell>
        <mxCell id="TYAmSIoRfzc6kdNb8GAb-135" value="horario" style="text;html=1;align=center;verticalAlign=middle;whiteSpace=wrap;rounded=0;" vertex="1" parent="1">
          <mxGeometry x="315.5" y="160" width="60" height="30" as="geometry" />
        </mxCell>
        <mxCell id="TYAmSIoRfzc6kdNb8GAb-136" value="tipo" style="text;html=1;align=center;verticalAlign=middle;whiteSpace=wrap;rounded=0;" vertex="1" parent="1">
          <mxGeometry x="315.5" y="200" width="60" height="30" as="geometry" />
        </mxCell>
        <mxCell id="TYAmSIoRfzc6kdNb8GAb-137" value="observacoes" style="text;html=1;align=center;verticalAlign=middle;whiteSpace=wrap;rounded=0;" vertex="1" parent="1">
          <mxGeometry x="331" y="241" width="60" height="30" as="geometry" />
        </mxCell>
        <mxCell id="TYAmSIoRfzc6kdNb8GAb-151" style="edgeStyle=orthogonalEdgeStyle;rounded=0;orthogonalLoop=1;jettySize=auto;html=1;endArrow=none;endFill=0;" edge="1" parent="1" source="TYAmSIoRfzc6kdNb8GAb-138" target="TYAmSIoRfzc6kdNb8GAb-6">
          <mxGeometry relative="1" as="geometry">
            <Array as="points">
              <mxPoint x="520" y="236" />
            </Array>
          </mxGeometry>
        </mxCell>
        <mxCell id="TYAmSIoRfzc6kdNb8GAb-138" value="" style="ellipse;whiteSpace=wrap;html=1;aspect=fixed;" vertex="1" parent="1">
          <mxGeometry x="555.5" y="232" width="9" height="9" as="geometry" />
        </mxCell>
        <mxCell id="TYAmSIoRfzc6kdNb8GAb-150" style="edgeStyle=orthogonalEdgeStyle;rounded=0;orthogonalLoop=1;jettySize=auto;html=1;endArrow=none;endFill=0;" edge="1" parent="1" source="TYAmSIoRfzc6kdNb8GAb-139" target="TYAmSIoRfzc6kdNb8GAb-6">
          <mxGeometry relative="1" as="geometry" />
        </mxCell>
        <mxCell id="TYAmSIoRfzc6kdNb8GAb-139" value="" style="ellipse;whiteSpace=wrap;html=1;aspect=fixed;" vertex="1" parent="1">
          <mxGeometry x="557.5" y="195.5" width="9" height="9" as="geometry" />
        </mxCell>
        <mxCell id="TYAmSIoRfzc6kdNb8GAb-149" style="edgeStyle=orthogonalEdgeStyle;rounded=0;orthogonalLoop=1;jettySize=auto;html=1;endArrow=none;endFill=0;" edge="1" parent="1" source="TYAmSIoRfzc6kdNb8GAb-140" target="TYAmSIoRfzc6kdNb8GAb-6">
          <mxGeometry relative="1" as="geometry">
            <Array as="points">
              <mxPoint x="520" y="156" />
            </Array>
          </mxGeometry>
        </mxCell>
        <mxCell id="TYAmSIoRfzc6kdNb8GAb-140" value="" style="ellipse;whiteSpace=wrap;html=1;aspect=fixed;fillColor=#000000;" vertex="1" parent="1">
          <mxGeometry x="533" y="151" width="9" height="9" as="geometry" />
        </mxCell>
        <mxCell id="TYAmSIoRfzc6kdNb8GAb-148" style="edgeStyle=orthogonalEdgeStyle;rounded=0;orthogonalLoop=1;jettySize=auto;html=1;endArrow=none;endFill=0;" edge="1" parent="1" source="TYAmSIoRfzc6kdNb8GAb-141" target="TYAmSIoRfzc6kdNb8GAb-6">
          <mxGeometry relative="1" as="geometry">
            <Array as="points">
              <mxPoint x="410" y="146" />
            </Array>
          </mxGeometry>
        </mxCell>
        <mxCell id="TYAmSIoRfzc6kdNb8GAb-141" value="" style="ellipse;whiteSpace=wrap;html=1;aspect=fixed;" vertex="1" parent="1">
          <mxGeometry x="391" y="142" width="9" height="9" as="geometry" />
        </mxCell>
        <mxCell id="TYAmSIoRfzc6kdNb8GAb-147" style="edgeStyle=orthogonalEdgeStyle;rounded=0;orthogonalLoop=1;jettySize=auto;html=1;endArrow=none;endFill=0;" edge="1" parent="1" source="TYAmSIoRfzc6kdNb8GAb-142" target="TYAmSIoRfzc6kdNb8GAb-6">
          <mxGeometry relative="1" as="geometry" />
        </mxCell>
        <mxCell id="TYAmSIoRfzc6kdNb8GAb-142" value="" style="ellipse;whiteSpace=wrap;html=1;aspect=fixed;" vertex="1" parent="1">
          <mxGeometry x="365.5" y="180.5" width="9" height="9" as="geometry" />
        </mxCell>
        <mxCell id="TYAmSIoRfzc6kdNb8GAb-146" style="edgeStyle=orthogonalEdgeStyle;rounded=0;orthogonalLoop=1;jettySize=auto;html=1;endArrow=none;endFill=0;" edge="1" parent="1" source="TYAmSIoRfzc6kdNb8GAb-143" target="TYAmSIoRfzc6kdNb8GAb-6">
          <mxGeometry relative="1" as="geometry">
            <Array as="points">
              <mxPoint x="386" y="225" />
              <mxPoint x="386" y="220" />
            </Array>
          </mxGeometry>
        </mxCell>
        <mxCell id="TYAmSIoRfzc6kdNb8GAb-143" value="" style="ellipse;whiteSpace=wrap;html=1;aspect=fixed;" vertex="1" parent="1">
          <mxGeometry x="356.5" y="220" width="9" height="9" as="geometry" />
        </mxCell>
        <mxCell id="TYAmSIoRfzc6kdNb8GAb-145" style="edgeStyle=orthogonalEdgeStyle;rounded=0;orthogonalLoop=1;jettySize=auto;html=1;endArrow=none;endFill=0;" edge="1" parent="1" source="TYAmSIoRfzc6kdNb8GAb-144" target="TYAmSIoRfzc6kdNb8GAb-6">
          <mxGeometry relative="1" as="geometry">
            <Array as="points">
              <mxPoint x="404" y="226" />
              <mxPoint x="404" y="250" />
            </Array>
          </mxGeometry>
        </mxCell>
        <mxCell id="TYAmSIoRfzc6kdNb8GAb-144" value="" style="ellipse;whiteSpace=wrap;html=1;aspect=fixed;" vertex="1" parent="1">
          <mxGeometry x="400" y="245.5" width="9" height="9" as="geometry" />
        </mxCell>
        <mxCell id="TYAmSIoRfzc6kdNb8GAb-154" value="id_refeicao" style="text;html=1;align=center;verticalAlign=middle;whiteSpace=wrap;rounded=0;" vertex="1" parent="1">
          <mxGeometry x="556" y="450" width="60" height="30" as="geometry" />
        </mxCell>
        <mxCell id="TYAmSIoRfzc6kdNb8GAb-163" style="edgeStyle=orthogonalEdgeStyle;rounded=0;orthogonalLoop=1;jettySize=auto;html=1;endArrow=none;endFill=0;" edge="1" parent="1" source="TYAmSIoRfzc6kdNb8GAb-155" target="TYAmSIoRfzc6kdNb8GAb-8">
          <mxGeometry relative="1" as="geometry">
            <Array as="points">
              <mxPoint x="599" y="506" />
              <mxPoint x="600" y="506" />
              <mxPoint x="600" y="486" />
              <mxPoint x="599" y="486" />
            </Array>
          </mxGeometry>
        </mxCell>
        <mxCell id="TYAmSIoRfzc6kdNb8GAb-155" value="" style="ellipse;whiteSpace=wrap;html=1;aspect=fixed;fillColor=#000000;" vertex="1" parent="1">
          <mxGeometry x="594.5" y="476.5" width="9" height="9" as="geometry" />
        </mxCell>
        <mxCell id="TYAmSIoRfzc6kdNb8GAb-156" value="id_paciente" style="text;html=1;align=center;verticalAlign=middle;whiteSpace=wrap;rounded=0;" vertex="1" parent="1">
          <mxGeometry x="629" y="442" width="60" height="30" as="geometry" />
        </mxCell>
        <mxCell id="TYAmSIoRfzc6kdNb8GAb-157" value="data" style="text;html=1;align=center;verticalAlign=middle;whiteSpace=wrap;rounded=0;" vertex="1" parent="1">
          <mxGeometry x="650" y="570" width="60" height="30" as="geometry" />
        </mxCell>
        <mxCell id="TYAmSIoRfzc6kdNb8GAb-164" style="edgeStyle=orthogonalEdgeStyle;rounded=0;orthogonalLoop=1;jettySize=auto;html=1;endArrow=none;endFill=0;" edge="1" parent="1" source="TYAmSIoRfzc6kdNb8GAb-158" target="TYAmSIoRfzc6kdNb8GAb-8">
          <mxGeometry relative="1" as="geometry">
            <Array as="points">
              <mxPoint x="640" y="520" />
              <mxPoint x="640" y="520" />
            </Array>
          </mxGeometry>
        </mxCell>
        <mxCell id="TYAmSIoRfzc6kdNb8GAb-158" value="" style="ellipse;whiteSpace=wrap;html=1;aspect=fixed;" vertex="1" parent="1">
          <mxGeometry x="642" y="471" width="9" height="9" as="geometry" />
        </mxCell>
        <mxCell id="TYAmSIoRfzc6kdNb8GAb-166" style="edgeStyle=orthogonalEdgeStyle;rounded=0;orthogonalLoop=1;jettySize=auto;html=1;endArrow=none;endFill=0;" edge="1" parent="1" source="TYAmSIoRfzc6kdNb8GAb-159" target="TYAmSIoRfzc6kdNb8GAb-8">
          <mxGeometry relative="1" as="geometry">
            <Array as="points">
              <mxPoint x="665" y="545" />
              <mxPoint x="665" y="566" />
            </Array>
          </mxGeometry>
        </mxCell>
        <mxCell id="TYAmSIoRfzc6kdNb8GAb-159" value="" style="ellipse;whiteSpace=wrap;html=1;aspect=fixed;" vertex="1" parent="1">
          <mxGeometry x="660" y="565" width="9" height="9" as="geometry" />
        </mxCell>
        <mxCell id="TYAmSIoRfzc6kdNb8GAb-160" value="refeicao_dia" style="text;html=1;align=center;verticalAlign=middle;whiteSpace=wrap;rounded=0;" vertex="1" parent="1">
          <mxGeometry x="550" y="570" width="60" height="30" as="geometry" />
        </mxCell>
        <mxCell id="TYAmSIoRfzc6kdNb8GAb-165" style="edgeStyle=orthogonalEdgeStyle;rounded=0;orthogonalLoop=1;jettySize=auto;html=1;endArrow=none;endFill=0;" edge="1" parent="1" source="TYAmSIoRfzc6kdNb8GAb-161" target="TYAmSIoRfzc6kdNb8GAb-8">
          <mxGeometry relative="1" as="geometry">
            <Array as="points">
              <mxPoint x="620" y="545" />
              <mxPoint x="620" y="545" />
            </Array>
          </mxGeometry>
        </mxCell>
        <mxCell id="TYAmSIoRfzc6kdNb8GAb-161" value="" style="ellipse;whiteSpace=wrap;html=1;aspect=fixed;" vertex="1" parent="1">
          <mxGeometry x="607" y="565" width="9" height="9" as="geometry" />
        </mxCell>
        <mxCell id="TYAmSIoRfzc6kdNb8GAb-167" value="id_item" style="text;html=1;align=center;verticalAlign=middle;whiteSpace=wrap;rounded=0;" vertex="1" parent="1">
          <mxGeometry x="720" y="375" width="60" height="30" as="geometry" />
        </mxCell>
        <mxCell id="TYAmSIoRfzc6kdNb8GAb-168" value="id_refeicao" style="text;html=1;align=center;verticalAlign=middle;whiteSpace=wrap;rounded=0;" vertex="1" parent="1">
          <mxGeometry x="780" y="359.5" width="60" height="30" as="geometry" />
        </mxCell>
        <mxCell id="TYAmSIoRfzc6kdNb8GAb-170" value="quantidade" style="text;html=1;align=center;verticalAlign=middle;whiteSpace=wrap;rounded=0;" vertex="1" parent="1">
          <mxGeometry x="870" y="416" width="60" height="30" as="geometry" />
        </mxCell>
        <mxCell id="TYAmSIoRfzc6kdNb8GAb-171" value="calorias" style="text;html=1;align=center;verticalAlign=middle;whiteSpace=wrap;rounded=0;" vertex="1" parent="1">
          <mxGeometry x="860" y="460.5" width="60" height="30" as="geometry" />
        </mxCell>
        <mxCell id="TYAmSIoRfzc6kdNb8GAb-172" value="nome_alimento" style="text;html=1;align=center;verticalAlign=middle;whiteSpace=wrap;rounded=0;" vertex="1" parent="1">
          <mxGeometry x="860" y="379" width="60" height="30" as="geometry" />
        </mxCell>
        <mxCell id="TYAmSIoRfzc6kdNb8GAb-178" style="edgeStyle=orthogonalEdgeStyle;rounded=0;orthogonalLoop=1;jettySize=auto;html=1;endArrow=none;endFill=0;" edge="1" parent="1" source="TYAmSIoRfzc6kdNb8GAb-173" target="TYAmSIoRfzc6kdNb8GAb-10">
          <mxGeometry relative="1" as="geometry">
            <Array as="points">
              <mxPoint x="800" y="430" />
              <mxPoint x="800" y="430" />
            </Array>
          </mxGeometry>
        </mxCell>
        <mxCell id="TYAmSIoRfzc6kdNb8GAb-173" value="" style="ellipse;whiteSpace=wrap;html=1;aspect=fixed;" vertex="1" parent="1">
          <mxGeometry x="805.5" y="389.5" width="9" height="9" as="geometry" />
        </mxCell>
        <mxCell id="TYAmSIoRfzc6kdNb8GAb-181" style="edgeStyle=orthogonalEdgeStyle;rounded=0;orthogonalLoop=1;jettySize=auto;html=1;endArrow=none;endFill=0;" edge="1" parent="1" source="TYAmSIoRfzc6kdNb8GAb-174" target="TYAmSIoRfzc6kdNb8GAb-10">
          <mxGeometry relative="1" as="geometry">
            <Array as="points">
              <mxPoint x="850" y="430" />
            </Array>
          </mxGeometry>
        </mxCell>
        <mxCell id="TYAmSIoRfzc6kdNb8GAb-174" value="" style="ellipse;whiteSpace=wrap;html=1;aspect=fixed;" vertex="1" parent="1">
          <mxGeometry x="849" y="405" width="9" height="9" as="geometry" />
        </mxCell>
        <mxCell id="TYAmSIoRfzc6kdNb8GAb-182" style="edgeStyle=orthogonalEdgeStyle;rounded=0;orthogonalLoop=1;jettySize=auto;html=1;endArrow=none;endFill=0;" edge="1" parent="1" source="TYAmSIoRfzc6kdNb8GAb-175" target="TYAmSIoRfzc6kdNb8GAb-10">
          <mxGeometry relative="1" as="geometry" />
        </mxCell>
        <mxCell id="TYAmSIoRfzc6kdNb8GAb-175" value="" style="ellipse;whiteSpace=wrap;html=1;aspect=fixed;" vertex="1" parent="1">
          <mxGeometry x="870" y="439" width="9" height="9" as="geometry" />
        </mxCell>
        <mxCell id="TYAmSIoRfzc6kdNb8GAb-183" style="edgeStyle=orthogonalEdgeStyle;rounded=0;orthogonalLoop=1;jettySize=auto;html=1;endArrow=none;endFill=0;" edge="1" parent="1">
          <mxGeometry relative="1" as="geometry">
            <mxPoint x="871" y="490" as="sourcePoint" />
            <mxPoint x="830" y="464" as="targetPoint" />
            <Array as="points">
              <mxPoint x="871" y="491" />
              <mxPoint x="830" y="491" />
              <mxPoint x="830" y="464" />
            </Array>
          </mxGeometry>
        </mxCell>
        <mxCell id="TYAmSIoRfzc6kdNb8GAb-176" value="" style="ellipse;whiteSpace=wrap;html=1;aspect=fixed;" vertex="1" parent="1">
          <mxGeometry x="870" y="485.5" width="9" height="9" as="geometry" />
        </mxCell>
        <mxCell id="TYAmSIoRfzc6kdNb8GAb-180" style="edgeStyle=orthogonalEdgeStyle;rounded=0;orthogonalLoop=1;jettySize=auto;html=1;endArrow=none;endFill=0;" edge="1" parent="1" source="TYAmSIoRfzc6kdNb8GAb-177" target="TYAmSIoRfzc6kdNb8GAb-10">
          <mxGeometry relative="1" as="geometry">
            <Array as="points">
              <mxPoint x="764" y="410" />
              <mxPoint x="764" y="410" />
            </Array>
          </mxGeometry>
        </mxCell>
        <mxCell id="TYAmSIoRfzc6kdNb8GAb-177" value="" style="ellipse;whiteSpace=wrap;html=1;aspect=fixed;fillColor=#000000;" vertex="1" parent="1">
          <mxGeometry x="760" y="398.5" width="9" height="9" as="geometry" />
        </mxCell>
        <mxCell id="TYAmSIoRfzc6kdNb8GAb-185" value="id_medicao" style="text;html=1;align=center;verticalAlign=middle;whiteSpace=wrap;rounded=0;" vertex="1" parent="1">
          <mxGeometry x="220" y="165.5" width="60" height="30" as="geometry" />
        </mxCell>
        <mxCell id="TYAmSIoRfzc6kdNb8GAb-186" value="id_paciente" style="text;html=1;align=center;verticalAlign=middle;whiteSpace=wrap;rounded=0;" vertex="1" parent="1">
          <mxGeometry x="140" y="169" width="60" height="30" as="geometry" />
        </mxCell>
        <mxCell id="TYAmSIoRfzc6kdNb8GAb-187" value="data" style="text;html=1;align=center;verticalAlign=middle;whiteSpace=wrap;rounded=0;" vertex="1" parent="1">
          <mxGeometry x="95" y="204.5" width="60" height="30" as="geometry" />
        </mxCell>
        <mxCell id="TYAmSIoRfzc6kdNb8GAb-188" value="peso_registrado" style="text;html=1;align=center;verticalAlign=middle;whiteSpace=wrap;rounded=0;" vertex="1" parent="1">
          <mxGeometry x="80" y="264" width="60" height="9.5" as="geometry" />
        </mxCell>
        <mxCell id="TYAmSIoRfzc6kdNb8GAb-195" style="edgeStyle=orthogonalEdgeStyle;rounded=0;orthogonalLoop=1;jettySize=auto;html=1;endArrow=none;endFill=0;" edge="1" parent="1" source="TYAmSIoRfzc6kdNb8GAb-190" target="TYAmSIoRfzc6kdNb8GAb-14">
          <mxGeometry relative="1" as="geometry">
            <Array as="points">
              <mxPoint x="230" y="230" />
              <mxPoint x="230" y="230" />
            </Array>
          </mxGeometry>
        </mxCell>
        <mxCell id="TYAmSIoRfzc6kdNb8GAb-190" value="" style="ellipse;whiteSpace=wrap;html=1;aspect=fixed;fillColor=#000000;" vertex="1" parent="1">
          <mxGeometry x="235.5" y="195.5" width="9" height="9" as="geometry" />
        </mxCell>
        <mxCell id="TYAmSIoRfzc6kdNb8GAb-196" style="edgeStyle=orthogonalEdgeStyle;rounded=0;orthogonalLoop=1;jettySize=auto;html=1;endArrow=none;endFill=0;" edge="1" parent="1" source="TYAmSIoRfzc6kdNb8GAb-191" target="TYAmSIoRfzc6kdNb8GAb-14">
          <mxGeometry relative="1" as="geometry">
            <Array as="points">
              <mxPoint x="220" y="230" />
              <mxPoint x="220" y="230" />
            </Array>
          </mxGeometry>
        </mxCell>
        <mxCell id="TYAmSIoRfzc6kdNb8GAb-191" value="" style="ellipse;whiteSpace=wrap;html=1;aspect=fixed;" vertex="1" parent="1">
          <mxGeometry x="180" y="195.5" width="9" height="9" as="geometry" />
        </mxCell>
        <mxCell id="TYAmSIoRfzc6kdNb8GAb-197" style="edgeStyle=orthogonalEdgeStyle;rounded=0;orthogonalLoop=1;jettySize=auto;html=1;endArrow=none;endFill=0;" edge="1" parent="1" source="TYAmSIoRfzc6kdNb8GAb-192" target="TYAmSIoRfzc6kdNb8GAb-14">
          <mxGeometry relative="1" as="geometry">
            <Array as="points">
              <mxPoint x="180" y="240" />
              <mxPoint x="180" y="240" />
            </Array>
          </mxGeometry>
        </mxCell>
        <mxCell id="TYAmSIoRfzc6kdNb8GAb-192" value="" style="ellipse;whiteSpace=wrap;html=1;aspect=fixed;" vertex="1" parent="1">
          <mxGeometry x="130" y="230" width="9" height="9" as="geometry" />
        </mxCell>
        <mxCell id="TYAmSIoRfzc6kdNb8GAb-198" style="edgeStyle=orthogonalEdgeStyle;rounded=0;orthogonalLoop=1;jettySize=auto;html=1;endArrow=none;endFill=0;" edge="1" parent="1" source="TYAmSIoRfzc6kdNb8GAb-193" target="TYAmSIoRfzc6kdNb8GAb-14">
          <mxGeometry relative="1" as="geometry">
            <Array as="points">
              <mxPoint x="179" y="285" />
            </Array>
          </mxGeometry>
        </mxCell>
        <mxCell id="TYAmSIoRfzc6kdNb8GAb-193" value="" style="ellipse;whiteSpace=wrap;html=1;aspect=fixed;" vertex="1" parent="1">
          <mxGeometry x="150" y="280" width="9" height="9" as="geometry" />
        </mxCell>
        <mxCell id="TYAmSIoRfzc6kdNb8GAb-200" value="tipo" style="text;html=1;align=center;verticalAlign=middle;whiteSpace=wrap;rounded=0;" vertex="1" parent="1">
          <mxGeometry x="110" y="368.5" width="60" height="30" as="geometry" />
        </mxCell>
        <mxCell id="TYAmSIoRfzc6kdNb8GAb-201" value="validade" style="text;html=1;align=center;verticalAlign=middle;whiteSpace=wrap;rounded=0;" vertex="1" parent="1">
          <mxGeometry x="70" y="400" width="60" height="30" as="geometry" />
        </mxCell>
        <mxCell id="TYAmSIoRfzc6kdNb8GAb-202" value="id_produto" style="text;html=1;align=center;verticalAlign=middle;whiteSpace=wrap;rounded=0;" vertex="1" parent="1">
          <mxGeometry x="220" y="359.5" width="60" height="30" as="geometry" />
        </mxCell>
        <mxCell id="TYAmSIoRfzc6kdNb8GAb-203" value="quantidade_atual" style="text;html=1;align=center;verticalAlign=middle;whiteSpace=wrap;rounded=0;" vertex="1" parent="1">
          <mxGeometry x="60" y="441" width="60" height="30" as="geometry" />
        </mxCell>
        <mxCell id="TYAmSIoRfzc6kdNb8GAb-205" value="nome" style="text;html=1;align=center;verticalAlign=middle;whiteSpace=wrap;rounded=0;" vertex="1" parent="1">
          <mxGeometry x="160" y="359.5" width="60" height="30" as="geometry" />
        </mxCell>
        <mxCell id="TYAmSIoRfzc6kdNb8GAb-216" style="edgeStyle=orthogonalEdgeStyle;rounded=0;orthogonalLoop=1;jettySize=auto;html=1;endArrow=none;endFill=0;" edge="1" parent="1" source="TYAmSIoRfzc6kdNb8GAb-206" target="TYAmSIoRfzc6kdNb8GAb-22">
          <mxGeometry relative="1" as="geometry">
            <Array as="points">
              <mxPoint x="180" y="455" />
            </Array>
          </mxGeometry>
        </mxCell>
        <mxCell id="TYAmSIoRfzc6kdNb8GAb-206" value="" style="ellipse;whiteSpace=wrap;html=1;aspect=fixed;" vertex="1" parent="1">
          <mxGeometry x="140" y="450" width="9" height="9" as="geometry" />
        </mxCell>
        <mxCell id="TYAmSIoRfzc6kdNb8GAb-215" style="edgeStyle=orthogonalEdgeStyle;rounded=0;orthogonalLoop=1;jettySize=auto;html=1;endArrow=none;endFill=0;" edge="1" parent="1" source="TYAmSIoRfzc6kdNb8GAb-207" target="TYAmSIoRfzc6kdNb8GAb-22">
          <mxGeometry relative="1" as="geometry">
            <Array as="points">
              <mxPoint x="150" y="415" />
              <mxPoint x="150" y="431" />
            </Array>
          </mxGeometry>
        </mxCell>
        <mxCell id="TYAmSIoRfzc6kdNb8GAb-207" value="" style="ellipse;whiteSpace=wrap;html=1;aspect=fixed;" vertex="1" parent="1">
          <mxGeometry x="130" y="410" width="9" height="9" as="geometry" />
        </mxCell>
        <mxCell id="TYAmSIoRfzc6kdNb8GAb-213" style="edgeStyle=orthogonalEdgeStyle;rounded=0;orthogonalLoop=1;jettySize=auto;html=1;endArrow=none;endFill=0;" edge="1" parent="1" source="TYAmSIoRfzc6kdNb8GAb-208" target="TYAmSIoRfzc6kdNb8GAb-22">
          <mxGeometry relative="1" as="geometry">
            <Array as="points">
              <mxPoint x="160" y="395" />
              <mxPoint x="160" y="420" />
            </Array>
          </mxGeometry>
        </mxCell>
        <mxCell id="TYAmSIoRfzc6kdNb8GAb-208" value="" style="ellipse;whiteSpace=wrap;html=1;aspect=fixed;" vertex="1" parent="1">
          <mxGeometry x="150" y="390" width="9" height="9" as="geometry" />
        </mxCell>
        <mxCell id="TYAmSIoRfzc6kdNb8GAb-212" style="edgeStyle=orthogonalEdgeStyle;rounded=0;orthogonalLoop=1;jettySize=auto;html=1;endArrow=none;endFill=0;" edge="1" parent="1" source="TYAmSIoRfzc6kdNb8GAb-209" target="TYAmSIoRfzc6kdNb8GAb-22">
          <mxGeometry relative="1" as="geometry">
            <Array as="points">
              <mxPoint x="200" y="440" />
              <mxPoint x="200" y="440" />
            </Array>
          </mxGeometry>
        </mxCell>
        <mxCell id="TYAmSIoRfzc6kdNb8GAb-209" value="" style="ellipse;whiteSpace=wrap;html=1;aspect=fixed;" vertex="1" parent="1">
          <mxGeometry x="191" y="385.5" width="9" height="9" as="geometry" />
        </mxCell>
        <mxCell id="TYAmSIoRfzc6kdNb8GAb-211" style="edgeStyle=orthogonalEdgeStyle;rounded=0;orthogonalLoop=1;jettySize=auto;html=1;endArrow=none;endFill=0;" edge="1" parent="1" source="TYAmSIoRfzc6kdNb8GAb-210" target="TYAmSIoRfzc6kdNb8GAb-22">
          <mxGeometry relative="1" as="geometry">
            <Array as="points">
              <mxPoint x="240" y="420" />
              <mxPoint x="240" y="420" />
            </Array>
          </mxGeometry>
        </mxCell>
        <mxCell id="TYAmSIoRfzc6kdNb8GAb-210" value="" style="ellipse;whiteSpace=wrap;html=1;aspect=fixed;fillColor=#000000;" vertex="1" parent="1">
          <mxGeometry x="241" y="385.5" width="9" height="9" as="geometry" />
        </mxCell>
        <mxCell id="TYAmSIoRfzc6kdNb8GAb-219" value="id_mov" style="text;html=1;align=center;verticalAlign=middle;whiteSpace=wrap;rounded=0;" vertex="1" parent="1">
          <mxGeometry x="299" y="516" width="60" height="30" as="geometry" />
        </mxCell>
        <mxCell id="TYAmSIoRfzc6kdNb8GAb-234" style="edgeStyle=orthogonalEdgeStyle;rounded=0;orthogonalLoop=1;jettySize=auto;html=1;endArrow=none;endFill=0;" edge="1" parent="1" source="TYAmSIoRfzc6kdNb8GAb-220" target="TYAmSIoRfzc6kdNb8GAb-23">
          <mxGeometry relative="1" as="geometry">
            <Array as="points">
              <mxPoint x="290" y="545" />
            </Array>
          </mxGeometry>
        </mxCell>
        <mxCell id="TYAmSIoRfzc6kdNb8GAb-220" value="" style="ellipse;whiteSpace=wrap;html=1;aspect=fixed;fillColor=#000000;" vertex="1" parent="1">
          <mxGeometry x="310" y="540" width="9" height="9" as="geometry" />
        </mxCell>
        <mxCell id="TYAmSIoRfzc6kdNb8GAb-221" value="id_produto" style="text;html=1;align=center;verticalAlign=middle;whiteSpace=wrap;rounded=0;" vertex="1" parent="1">
          <mxGeometry x="310" y="565" width="60" height="30" as="geometry" />
        </mxCell>
        <mxCell id="TYAmSIoRfzc6kdNb8GAb-222" value="data" style="text;html=1;align=center;verticalAlign=middle;whiteSpace=wrap;rounded=0;" vertex="1" parent="1">
          <mxGeometry x="271" y="620" width="60" height="30" as="geometry" />
        </mxCell>
        <mxCell id="TYAmSIoRfzc6kdNb8GAb-223" value="quantidade_entrada" style="text;html=1;align=center;verticalAlign=middle;whiteSpace=wrap;rounded=0;" vertex="1" parent="1">
          <mxGeometry x="191" y="640" width="60" height="30" as="geometry" />
        </mxCell>
        <mxCell id="TYAmSIoRfzc6kdNb8GAb-224" value="motivo" style="text;html=1;align=center;verticalAlign=middle;whiteSpace=wrap;rounded=0;" vertex="1" parent="1">
          <mxGeometry x="70" y="569" width="60" height="30" as="geometry" />
        </mxCell>
        <mxCell id="TYAmSIoRfzc6kdNb8GAb-225" value="quantidade_saida" style="text;html=1;align=center;verticalAlign=middle;whiteSpace=wrap;rounded=0;" vertex="1" parent="1">
          <mxGeometry x="89" y="620" width="60" height="30" as="geometry" />
        </mxCell>
        <mxCell id="TYAmSIoRfzc6kdNb8GAb-233" style="edgeStyle=orthogonalEdgeStyle;rounded=0;orthogonalLoop=1;jettySize=auto;html=1;endArrow=none;endFill=0;" edge="1" parent="1" source="TYAmSIoRfzc6kdNb8GAb-226" target="TYAmSIoRfzc6kdNb8GAb-23">
          <mxGeometry relative="1" as="geometry">
            <Array as="points">
              <mxPoint x="270" y="590" />
              <mxPoint x="270" y="590" />
            </Array>
          </mxGeometry>
        </mxCell>
        <mxCell id="TYAmSIoRfzc6kdNb8GAb-226" value="" style="ellipse;whiteSpace=wrap;html=1;aspect=fixed;" vertex="1" parent="1">
          <mxGeometry x="310" y="590" width="9" height="9" as="geometry" />
        </mxCell>
        <mxCell id="TYAmSIoRfzc6kdNb8GAb-232" style="edgeStyle=orthogonalEdgeStyle;rounded=0;orthogonalLoop=1;jettySize=auto;html=1;endArrow=none;endFill=0;" edge="1" parent="1" source="TYAmSIoRfzc6kdNb8GAb-227" target="TYAmSIoRfzc6kdNb8GAb-23">
          <mxGeometry relative="1" as="geometry">
            <Array as="points">
              <mxPoint x="250" y="600" />
              <mxPoint x="250" y="600" />
            </Array>
          </mxGeometry>
        </mxCell>
        <mxCell id="TYAmSIoRfzc6kdNb8GAb-227" value="" style="ellipse;whiteSpace=wrap;html=1;aspect=fixed;" vertex="1" parent="1">
          <mxGeometry x="280" y="620" width="9" height="9" as="geometry" />
        </mxCell>
        <mxCell id="TYAmSIoRfzc6kdNb8GAb-231" style="edgeStyle=orthogonalEdgeStyle;rounded=0;orthogonalLoop=1;jettySize=auto;html=1;endArrow=none;endFill=0;" edge="1" parent="1" source="TYAmSIoRfzc6kdNb8GAb-228" target="TYAmSIoRfzc6kdNb8GAb-23">
          <mxGeometry relative="1" as="geometry" />
        </mxCell>
        <mxCell id="TYAmSIoRfzc6kdNb8GAb-228" value="" style="ellipse;whiteSpace=wrap;html=1;aspect=fixed;" vertex="1" parent="1">
          <mxGeometry x="220" y="637" width="9" height="9" as="geometry" />
        </mxCell>
        <mxCell id="TYAmSIoRfzc6kdNb8GAb-236" style="edgeStyle=orthogonalEdgeStyle;rounded=0;orthogonalLoop=1;jettySize=auto;html=1;endArrow=none;endFill=0;" edge="1" parent="1" source="TYAmSIoRfzc6kdNb8GAb-229" target="TYAmSIoRfzc6kdNb8GAb-23">
          <mxGeometry relative="1" as="geometry">
            <Array as="points">
              <mxPoint x="200" y="580" />
              <mxPoint x="200" y="580" />
            </Array>
          </mxGeometry>
        </mxCell>
        <mxCell id="TYAmSIoRfzc6kdNb8GAb-229" value="" style="ellipse;whiteSpace=wrap;html=1;aspect=fixed;" vertex="1" parent="1">
          <mxGeometry x="160" y="620" width="9" height="9" as="geometry" />
        </mxCell>
        <mxCell id="TYAmSIoRfzc6kdNb8GAb-235" style="edgeStyle=orthogonalEdgeStyle;rounded=0;orthogonalLoop=1;jettySize=auto;html=1;endArrow=none;endFill=0;" edge="1" parent="1" source="TYAmSIoRfzc6kdNb8GAb-230" target="TYAmSIoRfzc6kdNb8GAb-23">
          <mxGeometry relative="1" as="geometry">
            <Array as="points">
              <mxPoint x="160" y="590" />
              <mxPoint x="160" y="590" />
            </Array>
          </mxGeometry>
        </mxCell>
        <mxCell id="TYAmSIoRfzc6kdNb8GAb-230" value="" style="ellipse;whiteSpace=wrap;html=1;aspect=fixed;" vertex="1" parent="1">
          <mxGeometry x="114.5" y="590" width="9" height="9" as="geometry" />
        </mxCell>
        <mxCell id="TYAmSIoRfzc6kdNb8GAb-237" value="(1,1)" style="text;html=1;align=center;verticalAlign=middle;whiteSpace=wrap;rounded=0;" vertex="1" parent="1">
          <mxGeometry x="210" y="446" width="60" height="30" as="geometry" />
        </mxCell>
        <mxCell id="TYAmSIoRfzc6kdNb8GAb-240" value="(1,n)" style="text;html=1;align=center;verticalAlign=middle;whiteSpace=wrap;rounded=0;" vertex="1" parent="1">
          <mxGeometry x="209" y="534" width="60" height="30" as="geometry" />
        </mxCell>
      </root>
    </mxGraphModel>
  </diagram>
</mxfile>
